<mxfile host="app.diagrams.net" modified="2023-12-29T16:16:36.736Z" agent="Mozilla/5.0 (Windows NT 10.0; Win64; x64) AppleWebKit/537.36 (KHTML, like Gecko) Chrome/120.0.0.0 Safari/537.36" etag="_xcVyc25i4VXlNeWN-oN" version="22.1.16" type="device">
  <diagram name="Page-1" id="c4acf3e9-155e-7222-9cf6-157b1a14988f">
    <mxGraphModel dx="1124" dy="558" grid="1" gridSize="10" guides="1" tooltips="1" connect="1" arrows="1" fold="1" page="1" pageScale="1" pageWidth="850" pageHeight="1100" background="none" math="0" shadow="0">
      <root>
        <mxCell id="0" />
        <mxCell id="1" parent="0" />
        <mxCell id="Etzb-0XIiYlZgjQwzEbd-2" value="TravaelAgent" style="swimlane;fontStyle=1;align=center;verticalAlign=top;childLayout=stackLayout;horizontal=1;startSize=26;horizontalStack=0;resizeParent=1;resizeParentMax=0;resizeLast=0;collapsible=1;marginBottom=0;whiteSpace=wrap;html=1;" vertex="1" parent="1">
          <mxGeometry x="60" y="50" width="350" height="210" as="geometry" />
        </mxCell>
        <mxCell id="Etzb-0XIiYlZgjQwzEbd-3" value="&lt;div&gt;- poolTourse:Dictionary&amp;lt;Client, List&amp;lt;Tours&amp;gt;&amp;gt;&lt;/div&gt;&lt;div&gt;- clients:List&amp;lt;Client&amp;gt;&amp;nbsp;&lt;/div&gt;&lt;div&gt;- tours:List&amp;lt;Tours&amp;gt;&lt;/div&gt;&lt;div&gt;&lt;span style=&quot;background-color: initial;&quot;&gt;+ countTurs:int&amp;nbsp;&lt;/span&gt;&lt;/div&gt;" style="text;strokeColor=none;fillColor=none;align=left;verticalAlign=top;spacingLeft=4;spacingRight=4;overflow=hidden;rotatable=0;points=[[0,0.5],[1,0.5]];portConstraint=eastwest;whiteSpace=wrap;html=1;" vertex="1" parent="Etzb-0XIiYlZgjQwzEbd-2">
          <mxGeometry y="26" width="350" height="74" as="geometry" />
        </mxCell>
        <mxCell id="Etzb-0XIiYlZgjQwzEbd-4" value="" style="line;strokeWidth=1;fillColor=none;align=left;verticalAlign=middle;spacingTop=-1;spacingLeft=3;spacingRight=3;rotatable=0;labelPosition=right;points=[];portConstraint=eastwest;strokeColor=inherit;" vertex="1" parent="Etzb-0XIiYlZgjQwzEbd-2">
          <mxGeometry y="100" width="350" height="8" as="geometry" />
        </mxCell>
        <mxCell id="Etzb-0XIiYlZgjQwzEbd-5" value="+ RegisterClient(clientName:string):void&lt;br&gt;+ GetClientID(name:string):sring&lt;br&gt;+ ViewClients():void&lt;br&gt;+ SignIn(name:srting, id:string):bool&lt;br&gt;+ ViewTours():void&lt;br&gt;+ AddTour(name:string, isHotDeal:bool, basePrice:double):void" style="text;strokeColor=none;fillColor=none;align=left;verticalAlign=top;spacingLeft=4;spacingRight=4;overflow=hidden;rotatable=0;points=[[0,0.5],[1,0.5]];portConstraint=eastwest;whiteSpace=wrap;html=1;" vertex="1" parent="Etzb-0XIiYlZgjQwzEbd-2">
          <mxGeometry y="108" width="350" height="102" as="geometry" />
        </mxCell>
        <mxCell id="Etzb-0XIiYlZgjQwzEbd-6" value="Client" style="swimlane;fontStyle=1;align=center;verticalAlign=top;childLayout=stackLayout;horizontal=1;startSize=26;horizontalStack=0;resizeParent=1;resizeParentMax=0;resizeLast=0;collapsible=1;marginBottom=0;whiteSpace=wrap;html=1;" vertex="1" parent="1">
          <mxGeometry x="60" y="380" width="235" height="120" as="geometry" />
        </mxCell>
        <mxCell id="Etzb-0XIiYlZgjQwzEbd-7" value="&lt;div&gt;+ ClientName:string&lt;/div&gt;&lt;div&gt;+ IdNumb:string&lt;/div&gt;&lt;div&gt;+ CountTuors:int&lt;/div&gt;" style="text;strokeColor=none;fillColor=none;align=left;verticalAlign=top;spacingLeft=4;spacingRight=4;overflow=hidden;rotatable=0;points=[[0,0.5],[1,0.5]];portConstraint=eastwest;whiteSpace=wrap;html=1;" vertex="1" parent="Etzb-0XIiYlZgjQwzEbd-6">
          <mxGeometry y="26" width="235" height="54" as="geometry" />
        </mxCell>
        <mxCell id="Etzb-0XIiYlZgjQwzEbd-8" value="" style="line;strokeWidth=1;fillColor=none;align=left;verticalAlign=middle;spacingTop=-1;spacingLeft=3;spacingRight=3;rotatable=0;labelPosition=right;points=[];portConstraint=eastwest;strokeColor=inherit;" vertex="1" parent="Etzb-0XIiYlZgjQwzEbd-6">
          <mxGeometry y="80" width="235" height="8" as="geometry" />
        </mxCell>
        <mxCell id="Etzb-0XIiYlZgjQwzEbd-9" value="- GetIdNumd();string" style="text;strokeColor=none;fillColor=none;align=left;verticalAlign=top;spacingLeft=4;spacingRight=4;overflow=hidden;rotatable=0;points=[[0,0.5],[1,0.5]];portConstraint=eastwest;whiteSpace=wrap;html=1;" vertex="1" parent="Etzb-0XIiYlZgjQwzEbd-6">
          <mxGeometry y="88" width="235" height="32" as="geometry" />
        </mxCell>
        <mxCell id="Etzb-0XIiYlZgjQwzEbd-10" value="Classname" style="swimlane;fontStyle=1;align=center;verticalAlign=top;childLayout=stackLayout;horizontal=1;startSize=30;horizontalStack=0;resizeParent=1;resizeParentMax=0;resizeLast=0;collapsible=1;marginBottom=0;whiteSpace=wrap;html=1;" vertex="1" parent="1">
          <mxGeometry x="500" y="350" width="190" height="164" as="geometry" />
        </mxCell>
        <mxCell id="Etzb-0XIiYlZgjQwzEbd-11" value="&lt;div&gt;+ Name:string&lt;/div&gt;&lt;div&gt;+ IsHotDeal:bool&lt;/div&gt;&lt;div&gt;+&amp;nbsp; BasePrice:double&lt;/div&gt;&lt;div&gt;+ CountTuors:double&lt;/div&gt;&lt;div&gt;+ price:double&lt;/div&gt;" style="text;strokeColor=none;fillColor=none;align=left;verticalAlign=top;spacingLeft=4;spacingRight=4;overflow=hidden;rotatable=0;points=[[0,0.5],[1,0.5]];portConstraint=eastwest;whiteSpace=wrap;html=1;" vertex="1" parent="Etzb-0XIiYlZgjQwzEbd-10">
          <mxGeometry y="30" width="190" height="84" as="geometry" />
        </mxCell>
        <mxCell id="Etzb-0XIiYlZgjQwzEbd-12" value="" style="line;strokeWidth=1;fillColor=none;align=left;verticalAlign=middle;spacingTop=-1;spacingLeft=3;spacingRight=3;rotatable=0;labelPosition=right;points=[];portConstraint=eastwest;strokeColor=inherit;" vertex="1" parent="Etzb-0XIiYlZgjQwzEbd-10">
          <mxGeometry y="114" width="190" height="8" as="geometry" />
        </mxCell>
        <mxCell id="Etzb-0XIiYlZgjQwzEbd-13" value="+ ToSring():string" style="text;strokeColor=none;fillColor=none;align=left;verticalAlign=top;spacingLeft=4;spacingRight=4;overflow=hidden;rotatable=0;points=[[0,0.5],[1,0.5]];portConstraint=eastwest;whiteSpace=wrap;html=1;" vertex="1" parent="Etzb-0XIiYlZgjQwzEbd-10">
          <mxGeometry y="122" width="190" height="42" as="geometry" />
        </mxCell>
        <mxCell id="Etzb-0XIiYlZgjQwzEbd-26" value="" style="endArrow=diamondThin;endFill=0;endSize=24;html=1;rounded=0;exitX=0.5;exitY=0;exitDx=0;exitDy=0;entryX=0.335;entryY=1.015;entryDx=0;entryDy=0;entryPerimeter=0;" edge="1" parent="1" source="Etzb-0XIiYlZgjQwzEbd-6" target="Etzb-0XIiYlZgjQwzEbd-5">
          <mxGeometry width="160" relative="1" as="geometry">
            <mxPoint x="280" y="350" as="sourcePoint" />
            <mxPoint x="440" y="350" as="targetPoint" />
          </mxGeometry>
        </mxCell>
        <mxCell id="Etzb-0XIiYlZgjQwzEbd-27" value="" style="endArrow=diamondThin;endFill=0;endSize=24;html=1;rounded=0;exitX=0.5;exitY=0;exitDx=0;exitDy=0;entryX=0.995;entryY=0.637;entryDx=0;entryDy=0;entryPerimeter=0;edgeStyle=orthogonalEdgeStyle;" edge="1" parent="1" source="Etzb-0XIiYlZgjQwzEbd-10" target="Etzb-0XIiYlZgjQwzEbd-3">
          <mxGeometry width="160" relative="1" as="geometry">
            <mxPoint x="430" y="260" as="sourcePoint" />
            <mxPoint x="410" y="120" as="targetPoint" />
            <Array as="points">
              <mxPoint x="595" y="123" />
            </Array>
          </mxGeometry>
        </mxCell>
      </root>
    </mxGraphModel>
  </diagram>
</mxfile>
